<svg xmlns="http://www.w3.org/2000/svg" xmlns:xlink="http://www.w3.org/1999/xlink" width="500" zoomAndPan="magnify" viewBox="0 0 375 374.999991" height="500" preserveAspectRatio="xMidYMid meet" version="1.0"><defs><clipPath id="8b2afe9bde"><path d="M 9.40625 9.671875 L 371.65625 9.671875 L 371.65625 341.921875 L 9.40625 341.921875 Z M 9.40625 9.671875 " clip-rule="nonzero"/></clipPath><clipPath id="9f60994ed8"><path d="M 64 32.335938 L 317 32.335938 L 317 290.953125 L 64 290.953125 Z M 64 32.335938 " clip-rule="nonzero"/></clipPath></defs><rect x="-37.5" width="450" fill="#ffffff" y="-37.499999" height="449.999989" fill-opacity="1"/><rect x="-37.5" width="450" fill="#ffffff" y="-37.499999" height="449.999989" fill-opacity="1"/><g clip-path="url(#8b2afe9bde)"><rect x="-37.5" width="450" fill="#ffffff" y="-37.499999" height="449.999989" fill-opacity="1"/><rect x="-37.5" width="450" fill="#ffffff" y="-37.499999" height="449.999989" fill-opacity="1"/></g><g clip-path="url(#9f60994ed8)"><path fill="#ffde59" d="M 189.855469 243.324219 C 206.746094 243.585938 221.15625 238.574219 234.640625 230.257812 C 241.410156 226.074219 247.402344 220.960938 253.03125 215.277344 C 261.660156 206.597656 266.460938 196.058594 268.632812 184.230469 C 269.921875 177.308594 270.542969 170.230469 270.128906 163.101562 C 269.664062 154.683594 269.25 146.261719 268.0625 137.945312 C 266.667969 128.128906 264.191406 118.574219 260.570312 109.277344 C 257.007812 100.128906 253.753906 90.832031 250.34375 81.585938 C 248.847656 77.457031 247.660156 73.21875 246.933594 68.824219 C 246.625 66.863281 245.90625 65.003906 245.589844 63.042969 C 245.335938 61.441406 245.28125 59.789062 245.386719 58.136719 C 245.589844 55.449219 247.140625 53.640625 249.570312 52.609375 C 254.011719 50.644531 258.507812 48.734375 262.949219 46.824219 C 270.492188 43.566406 277.980469 40.261719 285.527344 37.058594 C 289.140625 35.511719 292.910156 34.167969 296.578125 32.769531 C 299.679688 31.582031 302.363281 33.082031 303.292969 35.765625 C 303.914062 37.574219 304.894531 39.226562 305.671875 40.984375 C 309.132812 48.734375 312.539062 56.484375 315.949219 64.230469 C 316.105469 64.59375 316.3125 64.953125 316.414062 65.316406 C 317.035156 67.171875 316.160156 69.035156 314.347656 69.707031 C 309.957031 71.410156 305.617188 73.117188 301.226562 74.816406 C 300.347656 75.179688 299.417969 75.488281 298.59375 76.007812 C 296.628906 77.144531 295.597656 79.472656 296.0625 81.691406 C 296.269531 82.722656 296.683594 83.757812 297.042969 84.738281 C 298.800781 89.023438 300.710938 93.261719 302.3125 97.601562 C 305.773438 107.109375 308.046875 116.871094 309.75 126.839844 C 310.941406 133.8125 312.023438 140.785156 312.953125 147.8125 C 313.625 152.976562 314.089844 158.144531 314.296875 163.363281 C 315.277344 186.707031 309.957031 208.558594 298.335938 228.859375 C 295.648438 233.617188 292.1875 237.800781 288.675781 241.980469 C 281.132812 251.023438 272.710938 259.132812 263.105469 265.949219 C 259.898438 268.226562 256.546875 270.394531 253.082031 272.304688 C 243.472656 277.625 233.605469 282.378906 223.019531 285.476562 C 213.613281 288.21875 204.007812 289.972656 194.191406 290.542969 C 187.476562 290.953125 180.867188 290.179688 174.253906 289.144531 C 167.226562 288.011719 160.253906 286.511719 153.539062 284.082031 C 143.570312 280.519531 134.015625 275.972656 124.871094 270.597656 C 122.546875 269.207031 120.273438 267.707031 118.054688 266.15625 C 108.078125 259.03125 99.507812 250.453125 91.550781 241.207031 C 83.128906 231.445312 77.34375 220.289062 73.214844 208.199219 C 68.71875 195.023438 66.339844 181.492188 66.550781 167.546875 C 66.601562 162.84375 67.011719 158.144531 67.429688 153.496094 C 68.355469 143.0625 70.109375 132.730469 72.078125 122.445312 C 74.402344 110.667969 77.5 99.101562 82.5625 88.144531 C 83.285156 86.546875 83.957031 84.945312 84.578125 83.292969 C 85.867188 79.726562 84.628906 76.9375 81.113281 75.441406 C 79.929688 74.925781 78.6875 74.507812 77.445312 74.042969 C 73.777344 72.597656 70.0625 71.203125 66.394531 69.707031 C 64.636719 68.984375 63.964844 66.917969 64.789062 64.953125 C 65.824219 62.523438 66.960938 60.097656 68.046875 57.671875 C 70.578125 51.882812 73.105469 46.097656 75.691406 40.261719 C 76.464844 38.453125 77.292969 36.644531 78.171875 34.886719 C 78.996094 33.289062 80.339844 32.410156 82.148438 32.410156 C 82.976562 32.410156 83.855469 32.515625 84.628906 32.824219 C 93.925781 36.539062 103.328125 40.003906 112.371094 44.238281 C 118.566406 47.132812 124.871094 49.765625 131.171875 52.453125 C 134.167969 53.742188 135.714844 55.914062 135.769531 59.117188 C 135.820312 60.507812 135.714844 61.957031 135.40625 63.300781 C 134.6875 66.96875 133.960938 70.636719 132.925781 74.199219 C 131.535156 78.902344 129.929688 83.550781 128.277344 88.199219 C 125.027344 97.238281 121.667969 106.226562 118.363281 115.269531 C 116.191406 121.101562 114.742188 127.148438 113.867188 133.347656 C 113.144531 138.359375 112.417969 143.417969 112.007812 148.484375 C 111.335938 156.542969 110.613281 164.601562 111.179688 172.707031 C 111.800781 181.59375 113.144531 190.328125 116.863281 198.589844 C 119.550781 204.582031 122.957031 210.003906 127.660156 214.707031 C 131.585938 218.636719 135.511719 222.558594 140.007812 225.8125 C 151.574219 234.234375 164.179688 240.175781 178.386719 242.5 C 182.519531 243.222656 186.601562 243.480469 189.855469 243.324219 Z M 124.355469 235.734375 C 124.355469 234.441406 123.785156 233.046875 122.855469 232.011719 C 122.234375 231.339844 121.613281 230.722656 120.890625 230.152344 C 117.328125 227.308594 112.007812 229.171875 110.921875 233.617188 C 109.890625 237.902344 113.609375 242.707031 118 242.652344 C 118.71875 242.652344 119.445312 242.5 120.117188 242.1875 C 122.386719 241.308594 124.355469 238.160156 124.355469 235.734375 Z M 270.492188 234.597656 C 270.335938 232.632812 269.25 230.621094 266.878906 229.480469 C 264.5 228.34375 262.277344 228.652344 260.214844 230.257812 C 259.589844 230.773438 259.023438 231.292969 258.507812 231.855469 C 256.855469 233.664062 256.390625 235.734375 257.371094 238.003906 C 258.402344 240.382812 259.898438 242.292969 262.691406 242.707031 C 263 242.757812 263.363281 242.757812 263.722656 242.707031 C 267.339844 242.34375 270.492188 238.832031 270.492188 234.597656 Z M 92.117188 123.789062 C 89.691406 123.789062 87.625 125.03125 87.003906 127.199219 C 86.589844 128.492188 86.386719 129.988281 86.488281 131.332031 C 86.75 134.691406 90.101562 137.171875 93.304688 136.652344 C 96.871094 136.035156 99.296875 133.085938 98.988281 129.628906 C 98.679688 126.066406 95.890625 123.742188 92.117188 123.789062 Z M 282.683594 184.4375 C 282.632812 188.257812 285.9375 191 289.65625 190.328125 C 293.425781 189.65625 296.011719 185.882812 295.183594 182.113281 C 294.5625 179.0625 292.03125 177.101562 289.035156 177.515625 C 285.628906 178.03125 282.683594 180.359375 282.683594 184.4375 Z M 92.273438 190.429688 C 95.476562 190.429688 97.800781 188.570312 98.417969 185.832031 C 99.40625 181.441406 95.527344 177.046875 91.035156 177.515625 C 89.484375 177.671875 88.089844 178.238281 87.160156 179.632812 C 85.609375 181.90625 85.40625 184.28125 86.695312 186.707031 C 87.882812 189.085938 89.949219 190.328125 92.273438 190.429688 Z M 289.140625 123.789062 C 284.957031 123.742188 282.214844 126.425781 282.320312 130.453125 C 282.421875 133.757812 285.109375 136.445312 288.523438 136.707031 C 291.519531 136.914062 294.40625 134.484375 294.824219 131.28125 C 294.925781 130.351562 294.769531 129.371094 294.617188 128.4375 C 294.097656 125.496094 292.082031 123.789062 289.140625 123.789062 Z M 289.140625 123.789062 " fill-opacity="1" fill-rule="nonzero"/></g></svg>