<?xml version="1.0" encoding="UTF-8"?>
<svg width="400" height="400" viewBox="0 0 400 400" fill="none" xmlns="http://www.w3.org/2000/svg">
  <!-- Background Circle -->
  <circle cx="200" cy="200" r="200" fill="#1E3A8A" />
  
  <!-- Decorative Horse Shoe Shape -->
  <path d="M200 80C160 80 120 110 120 160C120 210 160 280 200 280C240 280 280 210 280 160C280 110 240 80 200 80ZM200 260C170 260 140 200 140 160C140 120 170 100 200 100C230 100 260 120 260 160C260 200 230 260 200 260Z" fill="#DC2626" fill-opacity="0.2"/>
  
  <!-- Person Silhouette -->
  <path d="M200 140C220 140 236 156 236 176C236 196 220 212 200 212C180 212 164 196 164 176C164 156 180 140 200 140ZM200 220C240 220 280 240 280 260V280H120V260C120 240 160 220 200 220Z" fill="#DC2626" fill-opacity="0.4"/>
</svg> 