<svg xmlns="http://www.w3.org/2000/svg" xmlns:xlink="http://www.w3.org/1999/xlink" width="500" zoomAndPan="magnify" viewBox="0 0 375 374.999991" height="500" preserveAspectRatio="xMidYMid meet" version="1.0"><defs><clipPath id="7fd4f3b633"><path d="M 5.652344 5.652344 L 369.347656 5.652344 L 369.347656 369.347656 L 5.652344 369.347656 Z M 5.652344 5.652344 " clip-rule="nonzero"/></clipPath><clipPath id="8830de2caf"><path d="M 187.5 5.652344 C 87.070312 5.652344 5.652344 87.070312 5.652344 187.5 C 5.652344 287.929688 87.070312 369.347656 187.5 369.347656 C 287.929688 369.347656 369.347656 287.929688 369.347656 187.5 C 369.347656 87.070312 287.929688 5.652344 187.5 5.652344 Z M 187.5 5.652344 " clip-rule="nonzero"/></clipPath><clipPath id="2b5ccce388"><path d="M 56.410156 54 L 318.910156 54 L 318.910156 321.71875 L 56.410156 321.71875 Z M 56.410156 54 " clip-rule="nonzero"/></clipPath></defs><g clip-path="url(#7fd4f3b633)"><g clip-path="url(#8830de2caf)"><path fill="#000000" d="M 5.652344 5.652344 L 369.347656 5.652344 L 369.347656 369.347656 L 5.652344 369.347656 Z M 5.652344 5.652344 " fill-opacity="1" fill-rule="nonzero"/></g></g><g clip-path="url(#2b5ccce388)"><path fill="#ffde59" d="M 186.824219 272.464844 C 204.316406 272.730469 219.238281 267.542969 233.199219 258.929688 C 240.207031 254.597656 246.410156 249.304688 252.242188 243.417969 C 261.171875 234.433594 266.148438 223.523438 268.394531 211.273438 C 269.730469 204.105469 270.371094 196.777344 269.945312 189.398438 C 269.464844 180.679688 269.035156 171.960938 267.804688 163.347656 C 266.363281 153.1875 263.792969 143.292969 260.050781 133.664062 C 256.359375 124.195312 252.988281 114.570312 249.460938 104.996094 C 247.910156 100.714844 246.679688 96.332031 245.929688 91.785156 C 245.609375 89.75 244.859375 87.824219 244.539062 85.792969 C 244.269531 84.136719 244.21875 82.421875 244.324219 80.710938 C 244.539062 77.929688 246.144531 76.058594 248.65625 74.988281 C 253.257812 72.957031 257.910156 70.976562 262.511719 69 C 270.320312 65.628906 278.074219 62.207031 285.882812 58.890625 C 289.628906 57.285156 293.53125 55.894531 297.332031 54.449219 C 300.539062 53.21875 303.320312 54.769531 304.285156 57.550781 C 304.925781 59.425781 305.941406 61.136719 306.742188 62.953125 C 310.328125 70.976562 313.859375 79 317.386719 87.023438 C 317.546875 87.398438 317.761719 87.773438 317.871094 88.148438 C 318.511719 90.070312 317.601562 91.996094 315.730469 92.691406 C 311.183594 94.457031 306.691406 96.222656 302.144531 97.988281 C 301.234375 98.363281 300.273438 98.683594 299.417969 99.21875 C 297.382812 100.394531 296.3125 102.800781 296.796875 105.101562 C 297.007812 106.171875 297.4375 107.242188 297.8125 108.257812 C 299.628906 112.695312 301.609375 117.082031 303.265625 121.574219 C 306.851562 131.417969 309.203125 141.527344 310.96875 151.851562 C 312.199219 159.070312 313.324219 166.292969 314.285156 173.566406 C 314.980469 178.914062 315.460938 184.261719 315.675781 189.664062 C 316.691406 213.839844 311.183594 236.464844 299.148438 257.488281 C 296.367188 262.40625 292.785156 266.738281 289.148438 271.074219 C 281.335938 280.433594 272.621094 288.832031 262.671875 295.890625 C 259.355469 298.242188 255.878906 300.492188 252.292969 302.46875 C 242.34375 307.976562 232.128906 312.898438 221.164062 316.109375 C 211.429688 318.941406 201.480469 320.761719 191.320312 321.351562 C 184.367188 321.777344 177.519531 320.976562 170.671875 319.90625 C 163.398438 318.730469 156.179688 317.179688 149.226562 314.664062 C 138.902344 310.972656 129.007812 306.265625 119.539062 300.703125 C 117.132812 299.261719 114.777344 297.707031 112.480469 296.105469 C 102.15625 288.722656 93.277344 279.84375 85.039062 270.269531 C 76.320312 260.160156 70.332031 248.609375 66.050781 236.09375 C 61.398438 222.453125 58.9375 208.4375 59.152344 193.996094 C 59.207031 189.128906 59.632812 184.261719 60.0625 179.449219 C 61.023438 168.644531 62.84375 157.945312 64.875 147.304688 C 67.28125 135.109375 70.492188 123.128906 75.734375 111.789062 C 76.480469 110.128906 77.175781 108.472656 77.820312 106.761719 C 79.15625 103.070312 77.871094 100.179688 74.234375 98.628906 C 73.003906 98.09375 71.722656 97.667969 70.4375 97.1875 C 66.640625 95.6875 62.789062 94.246094 58.992188 92.691406 C 57.171875 91.945312 56.476562 89.804688 57.332031 87.773438 C 58.402344 85.257812 59.582031 82.746094 60.703125 80.230469 C 63.324219 74.238281 65.945312 68.25 68.621094 62.207031 C 69.421875 60.332031 70.277344 58.460938 71.1875 56.644531 C 72.042969 54.984375 73.433594 54.074219 75.304688 54.074219 C 76.160156 54.074219 77.070312 54.183594 77.871094 54.503906 C 87.5 58.355469 97.234375 61.9375 106.59375 66.324219 C 113.015625 69.320312 119.539062 72.046875 126.066406 74.828125 C 129.167969 76.164062 130.773438 78.410156 130.824219 81.726562 C 130.878906 83.171875 130.773438 84.671875 130.449219 86.0625 C 129.703125 89.859375 128.953125 93.65625 127.882812 97.347656 C 126.4375 102.214844 124.78125 107.027344 123.070312 111.839844 C 119.699219 121.203125 116.222656 130.507812 112.800781 139.867188 C 110.554688 145.914062 109.054688 152.171875 108.148438 158.589844 C 107.398438 163.777344 106.648438 169.019531 106.222656 174.261719 C 105.527344 182.605469 104.777344 190.949219 105.367188 199.347656 C 106.007812 208.546875 107.398438 217.585938 111.25 226.144531 C 114.03125 232.347656 117.558594 237.964844 122.425781 242.832031 C 126.492188 246.894531 130.558594 250.960938 135.210938 254.332031 C 147.191406 263.050781 160.242188 269.199219 174.953125 271.605469 C 179.230469 272.355469 183.457031 272.625 186.824219 272.464844 Z M 119.003906 264.601562 C 119.003906 263.261719 118.417969 261.820312 117.453125 260.75 C 116.8125 260.054688 116.167969 259.414062 115.421875 258.824219 C 111.730469 255.882812 106.222656 257.808594 105.097656 262.40625 C 104.027344 266.847656 107.878906 271.820312 112.425781 271.769531 C 113.175781 271.769531 113.921875 271.605469 114.617188 271.285156 C 116.972656 270.378906 119.003906 267.113281 119.003906 264.601562 Z M 270.320312 263.421875 C 270.160156 261.390625 269.035156 259.304688 266.574219 258.128906 C 264.113281 256.953125 261.816406 257.273438 259.675781 258.929688 C 259.035156 259.464844 258.445312 260 257.910156 260.589844 C 256.199219 262.460938 255.71875 264.601562 256.734375 266.953125 C 257.804688 269.414062 259.355469 271.394531 262.242188 271.820312 C 262.5625 271.875 262.9375 271.875 263.3125 271.820312 C 267.058594 271.445312 270.320312 267.808594 270.320312 263.421875 Z M 85.628906 148.695312 C 83.113281 148.695312 80.976562 149.976562 80.332031 152.222656 C 79.90625 153.5625 79.691406 155.113281 79.796875 156.503906 C 80.066406 159.980469 83.542969 162.546875 86.859375 162.011719 C 90.550781 161.371094 93.0625 158.320312 92.742188 154.738281 C 92.421875 151.046875 89.53125 148.640625 85.628906 148.695312 Z M 282.941406 211.488281 C 282.890625 215.445312 286.3125 218.28125 290.164062 217.585938 C 294.066406 216.890625 296.742188 212.984375 295.886719 209.082031 C 295.246094 205.925781 292.625 203.894531 289.519531 204.320312 C 285.992188 204.855469 282.941406 207.261719 282.941406 211.488281 Z M 85.789062 217.691406 C 89.105469 217.691406 91.511719 215.765625 92.152344 212.933594 C 93.171875 208.386719 89.160156 203.839844 84.503906 204.320312 C 82.902344 204.480469 81.457031 205.070312 80.492188 206.511719 C 78.890625 208.867188 78.675781 211.328125 80.011719 213.839844 C 81.242188 216.300781 83.382812 217.585938 85.789062 217.691406 Z M 289.628906 148.695312 C 285.296875 148.640625 282.460938 151.421875 282.566406 155.59375 C 282.675781 159.015625 285.457031 161.796875 288.988281 162.066406 C 292.089844 162.28125 295.082031 159.765625 295.511719 156.449219 C 295.617188 155.488281 295.457031 154.46875 295.296875 153.507812 C 294.761719 150.460938 292.675781 148.695312 289.628906 148.695312 Z M 289.628906 148.695312 " fill-opacity="1" fill-rule="nonzero"/></g></svg>